<mxfile host="Electron" modified="2023-05-26T07:59:01.017Z" agent="Mozilla/5.0 (Windows NT 10.0; Win64; x64) AppleWebKit/537.36 (KHTML, like Gecko) draw.io/21.2.8 Chrome/112.0.5615.165 Electron/24.2.0 Safari/537.36" etag="RT03Uxwt8PtehRyLALzo" version="21.2.8" type="device">
  <diagram name="Page-1" id="9VdLThQsg_5GTOw_huOw">
    <mxGraphModel dx="1098" dy="828" grid="1" gridSize="10" guides="1" tooltips="1" connect="1" arrows="1" fold="1" page="1" pageScale="1" pageWidth="850" pageHeight="1100" math="0" shadow="0">
      <root>
        <mxCell id="0" />
        <mxCell id="1" parent="0" />
        <mxCell id="rmyOTJE35zIWG7AMoSqe-1" value="" style="rounded=0;whiteSpace=wrap;html=1;" vertex="1" parent="1">
          <mxGeometry x="210" y="120" width="180" height="230" as="geometry" />
        </mxCell>
        <mxCell id="rmyOTJE35zIWG7AMoSqe-2" value="" style="rounded=0;whiteSpace=wrap;html=1;" vertex="1" parent="1">
          <mxGeometry x="210" y="250" width="180" height="120" as="geometry" />
        </mxCell>
        <mxCell id="rmyOTJE35zIWG7AMoSqe-3" value="" style="rounded=0;whiteSpace=wrap;html=1;" vertex="1" parent="1">
          <mxGeometry x="210" y="120" width="180" height="30" as="geometry" />
        </mxCell>
        <mxCell id="rmyOTJE35zIWG7AMoSqe-4" value="Drone" style="text;html=1;strokeColor=none;fillColor=none;align=center;verticalAlign=middle;whiteSpace=wrap;rounded=0;" vertex="1" parent="1">
          <mxGeometry x="260" y="120" width="60" height="30" as="geometry" />
        </mxCell>
        <mxCell id="rmyOTJE35zIWG7AMoSqe-5" value="- clientName: String&lt;br&gt;- droneModel: String&lt;br&gt;- serviceProblem: String&lt;br&gt;- serviceCost: Double&lt;br&gt;&lt;div style=&quot;&quot;&gt;&lt;span style=&quot;background-color: initial;&quot;&gt;- serviceTag: String&lt;/span&gt;&lt;/div&gt;" style="text;html=1;strokeColor=none;fillColor=none;align=left;verticalAlign=middle;whiteSpace=wrap;rounded=0;" vertex="1" parent="1">
          <mxGeometry x="230" y="150" width="220" height="110" as="geometry" />
        </mxCell>
        <mxCell id="rmyOTJE35zIWG7AMoSqe-6" value="+ getClientName(): String&lt;br&gt;+ getDroneModel: String&lt;br&gt;+ getServiceProblem: String&lt;br&gt;+ getServiceCost: Double&lt;br&gt;&lt;div style=&quot;&quot;&gt;&lt;span style=&quot;background-color: initial;&quot;&gt;+ getServiceTag: String&lt;/span&gt;&lt;/div&gt;" style="text;html=1;strokeColor=none;fillColor=none;align=left;verticalAlign=middle;whiteSpace=wrap;rounded=0;" vertex="1" parent="1">
          <mxGeometry x="230" y="260" width="220" height="110" as="geometry" />
        </mxCell>
      </root>
    </mxGraphModel>
  </diagram>
</mxfile>
